<?xml version="1.0" encoding="utf-8"?>
<!-- Generator: Adobe Illustrator 22.1.0, SVG Export Plug-In . SVG Version: 6.00 Build 0)  -->
<svg version="1.1" id="Capa_1" xmlns="http://www.w3.org/2000/svg" xmlns:xlink="http://www.w3.org/1999/xlink" x="0px" y="0px"
	 viewBox="0 0 512 512" style="enable-background:new 0 0 512 512;" xml:space="preserve">
<style type="text/css">
	.st0{fill:#D3D4D4;}
	.st1{fill:#0D951A;}
</style>
<g>
	<g>
		<path class="st0" d="M414.8,213.5l-26,31.2c0.2,3.7,0.4,7.5,0.4,11.3c0,91.7-74.6,166.3-166.3,166.3S56.6,347.7,56.6,256
			S131.2,89.7,222.9,89.7c59.3,0,111.5,31.2,140.9,78.1l23.6-19.4c-7.3-11.2-15.9-21.7-25.6-31.4c-37.1-37.1-86.5-57.6-138.9-57.6
			S121.1,79.9,83.9,117.1C46.8,154.2,26.4,203.5,26.4,256s20.4,101.8,57.6,138.9s86.5,57.6,138.9,57.6s101.8-20.4,138.9-57.6
			c37.1-37.1,57.6-86.5,57.6-138.9C419.4,241.5,417.8,227.3,414.8,213.5z"/>
	</g>
	<polygon class="st1" points="485.6,110.9 411.3,200 387,229.2 294,340.7 184,213.9 201.2,195.1 294,240 369.6,177.8 393.4,158.2 
		470.5,94.8 	"/>
</g>
</svg>
